<svg width="1100" height="160" viewBox="0 0 1100 160" fill="none" xmlns="http://www.w3.org/2000/svg">
<path d="M100.468 42.6118C100.468 42.6118 51.1276 2.48174 15.322 51.147C12.6657 54.7573 10.57 58.7703 9.39338 63.0954C6.31331 74.4176 2.97191 98.6322 22.8202 117.436C49.6439 142.848 80.7029 132.965 103.291 114.612C125.88 96.2592 149.88 82.1415 156.939 80.7297L142.115 71.5532C142.115 71.5532 105.409 92.7298 94.1148 102.612C82.8206 112.495 50.3498 133.671 26.3496 96.9651C26.3496 96.9651 9.40835 71.5532 37.6438 48.9648C37.6438 48.9648 55.9969 32.0235 88.4677 51.7883L100.468 42.6118Z" fill="#6B5B95"/>
<path d="M117.177 117.219C117.177 117.219 166.517 157.349 202.323 108.684C204.979 105.074 207.075 101.061 208.251 96.7357C211.331 85.4134 214.673 61.1989 194.824 42.3952C168.001 16.9833 136.942 26.8657 114.353 45.2188C91.7648 63.5718 67.7646 77.6896 60.7058 79.1013L75.5294 88.2779C75.5294 88.2779 112.236 67.1013 123.53 57.2188C134.824 47.3364 167.295 26.1598 191.295 62.8659C191.295 62.8659 208.236 88.2779 180.001 110.866C180.001 110.866 161.648 127.808 129.177 108.043L117.177 117.219Z" fill="#6B5B95"/>
<path d="M144.285 111.41C144.285 111.41 165.462 122.704 183.815 101.528C202.168 80.3513 186.639 54.9393 173.933 49.2922C161.227 43.6451 154.168 45.0569 144.285 47.8804C144.285 47.8804 183.815 45.242 185.227 80.3513C185.227 80.3513 183.815 118.469 144.285 111.41Z" fill="#6B5B95" fill-opacity="0.8"/>
<path d="M73.3591 111.413C73.3591 111.413 52.1824 122.707 33.8294 101.531C15.4763 80.3542 31.0058 54.9422 43.7118 49.2952C56.4178 43.6481 63.4766 45.0598 73.3591 47.8834C73.3591 47.8834 33.8294 45.2449 32.4176 80.3542C32.4176 80.3542 33.8294 118.472 73.3591 111.413Z" fill="#6B5B95" fill-opacity="0.8"/>
<circle cx="201.88" cy="38.3531" r="18.3531" fill="#6B5B95"/>
<circle cx="18.3531" cy="121.647" r="18.3531" fill="#6B5B95"/>
<text x="260" y="112" font-family="'Times New Roman', Georgia, serif" font-size="105" font-weight="400" fill="#6B5B95" letter-spacing="0">PublishPress Links</text>
</svg>
